# xmcd CD database file
# Copyright (C) 1997 Ti Kan
#
# Track frame offsets:
#  150
#  27177
#  47325
#  71905
#  96367
#  115280
#  134137
#  153615
#  173200
#  193240
#
# Disc length: 3056 seconds
#
# Revision: 1
# Processed by: cddbd v1.4b41PL1 Copyright (c) Steve Scherf et al.
# Submitted via: CDWizzard Release:4.20
#
DISCID=940bee0a
DTITLE=The O'Jays - Heartbreaker
DYEAR=1900
DGENRE=
TTITLE0=Cryin' The Blues
TTITLE1=One Wonderful Girl
TTITLE2=Somebody Else Will
TTITLE3=Show Me The Right Way
TTITLE4=Trouble
TTITLE5=Can't Let You Go
TTITLE6=Decisions
TTITLE7=No Can Do
TTITLE8=Heartbreaker
TTITLE9=He Loves You
EXTD=
EXTT0=
EXTT1=
EXTT2=
EXTT3=
EXTT4=
EXTT5=
EXTT6=
EXTT7=
EXTT8=
EXTT9=
PLAYORDER=
